# xmcd CD database file
#
# Track frame offsets:
#	150
#	13242
#	26482
#	42495
#	69151
#	87565
#	104454
#	124966
#	142079
#	156058
#	170749
#	194104
#
# Disc length: 2797 seconds
#
# Revision: 0
# Processed by: cddbd v1.5.1PL0 Copyright (c) Steve Scherf et al.
# Submitted via: CDex 1.51
#
DISCID=b20aeb0c
DTITLE=太陽族 - ジェリービーン
DYEAR=2004
DGENRE=Punk Rock
TTITLE0=ロミオとジュリエット （アルバムバージョン）
TTITLE1=きこえるよ
TTITLE2=ジェリービーン
TTITLE3=スキ
TTITLE4=もう少しだけ
TTITLE5=ホタルの恋の歌 （アルバムバージョン）
TTITLE6=パレード
TTITLE7=もし今夜が雨ならば
TTITLE8=旅日記
TTITLE9=最後の最後で
TTITLE10=帰り道
TTITLE11=パニックワールド
EXTD=YEAR: 2004
EXTT0=
EXTT1=
EXTT2=
EXTT3=
EXTT4=
EXTT5=
EXTT6=
EXTT7=
EXTT8=
EXTT9=
EXTT10=
EXTT11=
PLAYORDER=
